<svg width="32" height="32" viewBox="0 0 32 32" fill="none" xmlns="http://www.w3.org/2000/svg">
<path d="M25.3333 8.24533V8C25.3333 5.79067 23.5427 4 21.3333 4C19.124 4 17.3333 5.79067 17.3333 8H14.6667C14.6667 5.79067 12.876 4 10.6667 4C8.45733 4 6.66667 5.79067 6.66667 8V8.24533C5.11867 8.79867 4 10.264 4 12V24C4 26.2053 5.79467 28 8 28H24C26.2053 28 28 26.2053 28 24V12C28 10.264 26.8813 8.79867 25.3333 8.24533ZM20 8C20 7.264 20.596 6.66667 21.3333 6.66667C22.0707 6.66667 22.6667 7.264 22.6667 8V10.6667C22.6667 11.4027 22.0707 12 21.3333 12C20.596 12 20 11.4027 20 10.6667V8ZM9.33333 8C9.33333 7.264 9.92933 6.66667 10.6667 6.66667C11.404 6.66667 12 7.264 12 8V10.6667C12 11.4027 11.404 12 10.6667 12C9.92933 12 9.33333 11.4027 9.33333 10.6667V8ZM25.3333 24C25.3333 24.7347 24.736 25.3333 24 25.3333H8C7.264 25.3333 6.66667 24.7347 6.66667 24V16H25.3333V24Z" fill="white"/>
</svg>
