<svg width="32" height="32" viewBox="0 0 32 32" fill="none" xmlns="http://www.w3.org/2000/svg">
<path d="M22 29.3334V25.3334H18.6666L23.3333 18.6667V22.6667H26.6666L22 29.3334ZM10.6666 29.3334C10.2889 29.3334 9.9722 29.2056 9.71665 28.95C9.46109 28.6945 9.33331 28.3778 9.33331 28V6.66669C9.33331 6.28891 9.46109 5.97224 9.71665 5.71669C9.9722 5.46113 10.2889 5.33335 10.6666 5.33335H13.3333V2.66669H18.6666V5.33335H21.3333C21.7111 5.33335 22.0278 5.46113 22.2833 5.71669C22.5389 5.97224 22.6666 6.28891 22.6666 6.66669V16C22.2 16 21.7444 16.0389 21.3 16.1167C20.8555 16.1945 20.4222 16.3111 20 16.4667V8.00002H12V26.6667H15.1333C15.3111 27.1778 15.5278 27.6556 15.7833 28.1C16.0389 28.5445 16.3444 28.9556 16.7 29.3334H10.6666Z" fill="#CED4DA"/>
</svg>
