<svg width="32" height="32" viewBox="0 0 32 32" fill="none" xmlns="http://www.w3.org/2000/svg">
<path d="M28 9.33333V25.3333C28 26.0667 27.7389 26.6944 27.2167 27.2167C26.6944 27.7389 26.0667 28 25.3333 28H6.66667C5.93333 28 5.30556 27.7389 4.78333 27.2167C4.26111 26.6944 4 26.0667 4 25.3333V6.66667C4 5.93333 4.26111 5.30556 4.78333 4.78333C5.30556 4.26111 5.93333 4 6.66667 4H22.6667L28 9.33333ZM25.3333 10.4667L21.5333 6.66667H6.66667V25.3333H25.3333V10.4667ZM16 24C17.1111 24 18.0556 23.6111 18.8333 22.8333C19.6111 22.0556 20 21.1111 20 20C20 18.8889 19.6111 17.9444 18.8333 17.1667C18.0556 16.3889 17.1111 16 16 16C14.8889 16 13.9444 16.3889 13.1667 17.1667C12.3889 17.9444 12 18.8889 12 20C12 21.1111 12.3889 22.0556 13.1667 22.8333C13.9444 23.6111 14.8889 24 16 24ZM8 13.3333H20V8H8V13.3333ZM6.66667 10.4667V25.3333V6.66667V10.4667Z" fill="white"/>
</svg>
